<?xml version="1.0" encoding="UTF-8"?><svg id="Layer_1" xmlns="http://www.w3.org/2000/svg" width="38.79mm" height="31.99mm" viewBox="0 0 109.96 90.68"><rect width="109.96" height="90.68" style="fill:#292663;"/><path d="m36.19,52.54h-17.95s0,24.72,0,24.72h41.76c9.02,0,16.61-2.5,21.89-7.1,5.18-4.46,8.69-10.66,10.12-17.64l-19.69.03c-2.28,7.24-8.24,11.47-16.54,11.47l-19.58-.1v-11.38Z" style="fill:#fff;"/><path d="m36.19,45.37v-16.69c0-.96,0-1.25-.29-2.21.86.29,1.15.38,2.3.38h17.76c5.18,0,8.45,1.34,11.9,4.7,3.65,3.65,5.47,8.35,5.47,13.82h18.67c0-8.36-2.83-17.76-7.92-23.42-5.76-5.86-14.4-8.74-26.78-8.74H18.24v32.14h17.95Z" style="fill:#fff;"/></svg>