<svg width="38.925mm" height="30.792mm" version="1.1" viewBox="0 0 38.925 30.792" xmlns="http://www.w3.org/2000/svg">
 <g transform="translate(-35.647 -29.549)">
  <path d="m48.381 46.113-3.122-4.0573-5.1122 0.2717 2.894-4.223-1.8382-4.778 4.9106 1.4473 3.9762-3.2247 0.14094 5.1175 4.2956 2.7851-4.8235 1.7154z" stroke-width=".26458"/>
  <path d="m41.203 33.326c-1.135-0.2735-3.1314-1.9555-3.4049-0.82051-0.2735 1.135 2.4485 0.15102 3.4049 0.82051 1.6667 1.1667 2.5918 3.1686 4.1546 4.4712 1.9272 1.6063 7.5663 4.9171 9.8274 6.0476 1.4219 0.71094 2.8112 4.5948 3.7798 6.0476 1.2019 1.8028 11.592 8.3155 13.607 8.3155" fill="none" stroke="#000" stroke-width=".26458px"/>
  <text x="56.931084" y="40.353676" fill="#000000" font-family="sans-serif" stroke-width=".26458" style="line-height:1.25" xml:space="preserve"><tspan x="56.931084" y="40.353676" font-family="'American Typewriter'">D<tspan baseline-shift="sub" font-family="'American Typewriter'" font-size="65%">1</tspan></tspan></text>
 </g>
</svg>
